<svg xmlns="http://www.w3.org/2000/svg" width="45" height="45" viewBox="0 0 45 45">
  <g id="linkedin" transform="translate(-1065 -6717)">
    <g id="Oval_Copy" data-name="Oval Copy" transform="translate(1065 6717)" fill="none" opacity="0.25">
      <path d="M22.5,45A22.5,22.5,0,1,0,0,22.5,22.5,22.5,0,0,0,22.5,45Z" stroke="none"/>
      <path d="M 22.5 42.75 C 25.23472023010254 42.75 27.88644981384277 42.21490859985352 30.38151931762695 41.15958023071289 C 32.79261016845703 40.13977813720703 34.95846176147461 38.67935943603516 36.81890869140625 36.81890869140625 C 38.67935943603516 34.95846176147461 40.13977813720703 32.79261016845703 41.15958023071289 30.38151931762695 C 42.21490859985352 27.88644981384277 42.75 25.23472023010254 42.75 22.5 C 42.75 19.76527976989746 42.21490859985352 17.11355018615723 41.15958023071289 14.61847972869873 C 40.13977813720703 12.20738983154297 38.67935943603516 10.04154014587402 36.81890869140625 8.181090354919434 C 34.95846176147461 6.320640087127686 32.79261016845703 4.860219955444336 30.38151931762695 3.840420007705688 C 27.88644981384277 2.78508996963501 25.23472023010254 2.25 22.5 2.25 C 19.76527976989746 2.25 17.11355018615723 2.78508996963501 14.61847972869873 3.840420007705688 C 12.20738983154297 4.860219955444336 10.04154014587402 6.320640087127686 8.181090354919434 8.181090354919434 C 6.320640087127686 10.04154014587402 4.860219955444336 12.20738983154297 3.840420007705688 14.61847972869873 C 2.78508996963501 17.11355018615723 2.25 19.76527976989746 2.25 22.5 C 2.25 25.23472023010254 2.78508996963501 27.88644981384277 3.840420007705688 30.38151931762695 C 4.860219955444336 32.79261016845703 6.320640087127686 34.95846176147461 8.181090354919434 36.81890869140625 C 10.04154014587402 38.67935943603516 12.20738983154297 40.13977813720703 14.61847972869873 41.15958023071289 C 17.11355018615723 42.21490859985352 19.76527976989746 42.75 22.5 42.75 M 22.5 45 C 10.07359027862549 45 -3.552713678800501e-15 34.92641067504883 -3.552713678800501e-15 22.5 C -3.552713678800501e-15 10.07359027862549 10.07359027862549 -3.552713678800501e-15 22.5 -3.552713678800501e-15 C 34.92641067504883 -3.552713678800501e-15 45 10.07359027862549 45 22.5 C 45 34.92641067504883 34.92641067504883 45 22.5 45 Z" stroke="none" fill="#fff"/>
    </g>
    <g id="Linkedin_icon" data-name="Linkedin icon">
      <g id="linkedin-2" data-name="linkedin">
        <path id="Oval" d="M1.688,3.375A1.688,1.688,0,1,0,0,1.688,1.687,1.687,0,0,0,1.688,3.375Z" transform="translate(1081 6733)" fill="#fff"/>
        <path id="Shape" d="M3.094,0H.281A.281.281,0,0,0,0,.281V8.719A.281.281,0,0,0,.281,9H3.094a.281.281,0,0,0,.281-.281V.281A.281.281,0,0,0,3.094,0Z" transform="translate(1081 6737.5)" fill="#fff"/>
        <path id="Shape-2" data-name="Shape" d="M6.973.175a4.273,4.273,0,0,0-3.607.6A.281.281,0,0,0,3.094.563H.281A.281.281,0,0,0,0,.844V9.281a.281.281,0,0,0,.281.281H3.094a.281.281,0,0,0,.281-.281V3.218A1.472,1.472,0,0,1,4.894,2.9a1.324,1.324,0,0,1,.731,1.314V9.281a.281.281,0,0,0,.281.281H8.719A.281.281,0,0,0,9,9.281V3.652C8.968,1.341,7.881.485,6.973.175Z" transform="translate(1085.5 6736.938)" fill="#fff"/>
      </g>
    </g>
  </g>
</svg>
