<svg xmlns="http://www.w3.org/2000/svg" xmlns:xlink="http://www.w3.org/1999/xlink" width="24" height="24" viewBox="0 0 24 24">
  <defs>
    <clipPath id="clip-path">
      <rect id="Rectangle_12464" data-name="Rectangle 12464" width="24" height="24" transform="translate(11242 -332)" fill="#fff" stroke="#707070" stroke-width="1"/>
    </clipPath>
  </defs>
  <g id="Mask_Group_27" data-name="Mask Group 27" transform="translate(-11242 332)" clip-path="url(#clip-path)">
    <g id="noun-pie-chart-2257215" transform="translate(11242 -332)">
      <path id="Path_94453" data-name="Path 94453" d="M120.626,75.857A10.813,10.813,0,1,1,109.8,65.07V75.857Z" transform="translate(-98.759 -62.859)" fill="#fff"/>
      <path id="Path_94454" data-name="Path 94454" d="M115.411,70.644a10.546,10.546,0,1,1-11.779-10.476,10.854,10.854,0,0,1,1.23-.067l-.26-.26V70.649a.264.264,0,0,0,.26.26h10.808a.26.26,0,0,0,0-.519H104.862l.259.26V59.841a.264.264,0,0,0-.259-.26,11.065,11.065,0,1,0,10.994,12.365,10.888,10.888,0,0,0,.078-1.3.262.262,0,0,0-.524,0Z" transform="translate(-93.803 -57.626)" fill="#fff"/>
      <path id="Path_94455" data-name="Path 94455" d="M367.593,28.157H356.785l.519.519V17.868l-.519.519a10.285,10.285,0,0,1,9.661,6.735,10.5,10.5,0,0,1,.628,3.554.519.519,0,0,0,1.038,0,11.318,11.318,0,0,0-2.091-6.553,11.448,11.448,0,0,0-5.339-4.078,11.3,11.3,0,0,0-3.891-.69.527.527,0,0,0-.519.519V28.681a.527.527,0,0,0,.519.519H367.6a.522.522,0,0,0-.005-1.043Z" transform="translate(-344.112 -17.354)" fill="#fff"/>
    </g>
  </g>
</svg>
