<svg xmlns="http://www.w3.org/2000/svg" width="45" height="45" viewBox="0 0 45 45">
  <g id="Youtube" transform="translate(-1275 -6717)">
    <g id="twitter">
      <g id="Oval_Copy" data-name="Oval Copy" transform="translate(1275 6717)" fill="none" opacity="0.25">
        <path d="M22.5,45A22.5,22.5,0,1,0,0,22.5,22.5,22.5,0,0,0,22.5,45Z" stroke="none"/>
        <path d="M 22.5 43 C 25.26836013793945 43 27.95285987854004 42.45825958251953 30.47891044616699 41.38983154296875 C 32.9197998046875 40.357421875 35.11235809326172 38.87902069091797 36.99568939208984 36.99568939208984 C 38.87902069091797 35.11235809326172 40.357421875 32.9197998046875 41.38983154296875 30.47891044616699 C 42.45825958251953 27.95285987854004 43 25.26836013793945 43 22.5 C 43 19.73163986206055 42.45825958251953 17.04714012145996 41.38983154296875 14.52108955383301 C 40.357421875 12.0802001953125 38.87902069091797 9.887639999389648 36.99568939208984 8.00430965423584 C 35.11235809326172 6.120979785919189 32.9197998046875 4.642580032348633 30.47891044616699 3.610169887542725 C 27.95285987854004 2.541739940643311 25.26836013793945 2 22.5 2 C 19.73163986206055 2 17.04714012145996 2.541739940643311 14.52108955383301 3.610169887542725 C 12.0802001953125 4.642580032348633 9.887639999389648 6.120979785919189 8.00430965423584 8.00430965423584 C 6.120979785919189 9.887639999389648 4.642580032348633 12.0802001953125 3.610169887542725 14.52108955383301 C 2.541739940643311 17.04714012145996 2 19.73163986206055 2 22.5 C 2 25.26836013793945 2.541739940643311 27.95285987854004 3.610169887542725 30.47891044616699 C 4.642580032348633 32.9197998046875 6.120979785919189 35.11235809326172 8.00430965423584 36.99568939208984 C 9.887639999389648 38.87902069091797 12.0802001953125 40.357421875 14.52108955383301 41.38983154296875 C 17.04714012145996 42.45825958251953 19.73163986206055 43 22.5 43 M 22.5 45 C 10.07359027862549 45 -3.552713678800501e-15 34.92641067504883 -3.552713678800501e-15 22.5 C -3.552713678800501e-15 10.07359027862549 10.07359027862549 -3.552713678800501e-15 22.5 -3.552713678800501e-15 C 34.92641067504883 -3.552713678800501e-15 45 10.07359027862549 45 22.5 C 45 34.92641067504883 34.92641067504883 45 22.5 45 Z" stroke="none" fill="#fff"/>
      </g>
    </g>
    <g id="bxl-youtube">
      <path id="Shape" d="M1298.007,6745h-.014a47.928,47.928,0,0,1-6.26-.343,1.982,1.982,0,0,1-1.408-1.385,20.163,20.163,0,0,1-.325-3.78,20.666,20.666,0,0,1,.333-3.778,2.028,2.028,0,0,1,1.412-1.4,47.35,47.35,0,0,1,6.236-.316h.024a48.044,48.044,0,0,1,6.26.342,1.988,1.988,0,0,1,1.41,1.387,19.3,19.3,0,0,1,.325,3.793,20.656,20.656,0,0,1-.333,3.776,1.993,1.993,0,0,1-1.413,1.385A49.16,49.16,0,0,1,1298.007,6745Zm-1.6-7.856h0l0,4.711,4.166-2.353-4.163-2.358Z" fill="#fff"/>
    </g>
  </g>
</svg>
